<?xml version="1.0" encoding="UTF-8"?>
<svg id="Calque_2" xmlns="http://www.w3.org/2000/svg" viewBox="0 0 973.78 1428.29">
    <defs>
        <style>
            .cls-1{fill:#965e38;}.cls-1,.cls-2,.cls-3,.cls-4,.cls-5{stroke-width:0px;}.cls-1,.cls-2,.cls-4{fill-rule:evenodd;}.cls-2{fill:#744627;}.cls-3,.cls-4{fill:#fff;}.cls-5{fill:#523019;}</style>
    </defs>
    <g id="Layer_1">
        <path class="cls-2"
            d="M144.99,75.68v6.34s47.13-8.16,47.13,41.68l4.53,1.37.9-55.29-52.56,5.89Z" />
        <path class="cls-3"
            d="M792.07,262.68c110.57,118.27,104.68,198.02,63.44,236.54-19.03,17.67-45.31,26.73-71.59,26.73-26.29,0-53.01-9.06-72.05-26.73-41.24-38.51-47.12-118.27,63.44-236.54,4.53-4.98,12.23-4.98,16.76,0h0ZM783.92,287.15c-91.08,101.05-88.82,165.39-56.64,195.75,14.5,13.6,35.35,20.39,56.64,20.39,20.84,0,41.68-6.79,56.19-20.39,32.17-30.36,34.44-94.7-56.19-195.75h0Z" />
        <path class="cls-4"
            d="M203,389.7L520.19,72.5c4.54-4.98,4.54-12.68,0-17.67l-25.82-25.82c-4.99-4.54-12.69-4.54-17.67,0L159.5,346.2c-4.53,4.99-4.53,12.68,0,17.67l25.84,25.83c4.98,4.53,12.68,4.53,17.67,0h0Z" />
        <path class="cls-4"
            d="M897.2,14.5H126.87c-6.79,0-12.69,5.43-12.69,12.68v35.8c0,7.24,5.9,12.68,12.69,12.68h770.33c7.25,0,12.68-5.44,12.68-12.68V27.19c0-7.25-5.43-12.68-12.68-12.68h0Z" />
        <path class="cls-4"
            d="M897.2,14.5H126.87c-6.79,0-12.69,5.43-12.69,12.68v22.66c0,7.25,5.9,12.68,12.69,12.68h770.33c7.25,0,12.68-5.43,12.68-12.68v-22.66c0-7.25-5.43-12.68-12.68-12.68h0Z" />
        <path class="cls-3"
            d="M840.55,11.33C840.55,4.98,835.12,0,829.23,0c-6.35,0-11.32,4.98-11.32,11.33v67.52c0,6.35,4.98,11.33,11.32,11.33,5.89,0,11.32-4.98,11.32-11.33V11.33Z" />
        <path class="cls-3"
            d="M817.91,11.33C817.91,4.98,812.46,0,806.57,0c-6.34,0-11.32,4.98-11.32,11.33v67.52c0,6.35,4.99,11.33,11.32,11.33,5.89,0,11.34-4.98,11.34-11.33V11.33Z" />
        <path class="cls-3"
            d="M795.25,6.97c0-3.9-5.44-6.97-11.33-6.97-6.35,0-11.33,3.06-11.33,6.97v239.11c0,3.9,4.99,6.97,11.33,6.97,5.89,0,11.33-3.06,11.33-6.97V6.97Z" />
        <path class="cls-3"
            d="M772.59,11.33C772.59,4.98,767.15,0,761.26,0c-6.35,0-11.33,4.98-11.33,11.33v67.52c0,6.35,4.98,11.33,11.33,11.33,5.89,0,11.33-4.98,11.33-11.33V11.33Z" />
        <path class="cls-3"
            d="M749.93,11.33c0-6.34-5.44-11.33-11.33-11.33-6.34,0-11.33,4.98-11.33,11.33v67.52c0,6.35,4.99,11.33,11.33,11.33,5.89,0,11.33-4.98,11.33-11.33V11.33Z" />
        <path class="cls-3"
            d="M749.93,266.76c-6.35,0-11.33-4.99-11.33-11.33,0-6.34,4.99-11.33,11.33-11.33h67.52c6.34,0,11.33,4.99,11.33,11.33,0,6.34-4.99,11.33-11.33,11.33h-67.52Z" />
        <path class="cls-3"
            d="M749.93,244.1c-6.35,0-11.33-4.99-11.33-11.33s4.99-11.33,11.33-11.33h67.52c6.34,0,11.33,4.99,11.33,11.33,0,6.34-4.99,11.33-11.33,11.33h-67.52Z" />
        <path class="cls-4"
            d="M514.3,68.42l2.26,7.25s-48.04-5.44-88.36,28.09c-40.34,33.08-198.48,193.49-198.48,193.49,0,0-23.56,33.08-23.56,88.82l-7.71-12.24,7.71-74.32,223.84-223.85,84.29-7.25Z" />
        <path class="cls-1"
            d="M206.17,1358.5h619.43s63.44,0,63.44,0h60.72c13.14,0,24.02-10.42,24.02-23.56v18.12c0,12.68-10.87,23.56-24.02,23.56h-60.72s-63.44,0-63.44,0H193.48s-35.8,0-35.8,0h-9.52s-63.43,0-63.43,0H24.01c-13.15,0-24.01-10.87-24.01-23.56v-18.12c0,13.14,10.86,23.56,24.01,23.56h60.73s60.26,0,60.26,0h3.17s43.96,0,43.96,0h14.05Z" />
        <path class="cls-2"
            d="M206.17,1345.56V80.24c0-6.79-5.45-12.23-12.69-12.23h-35.8c-7.26,0-12.69,5.44-12.69,12.23v1265.32c0,6.8,5.43,12.68,12.69,12.68h35.8c7.24,0,12.69-5.88,12.69-12.68h0Z" />
        <rect class="cls-5" x="825.6" y="1341.74" width="63.44" height="86.56" />
        <rect class="cls-5" x="84.73" y="1341.74" width="63.43" height="86.56" />
        <path class="cls-1"
            d="M949.76,1261.53H24.01C10.86,1261.53,0,1271.96,0,1285.1v67.97c0,12.68,10.86,23.56,24.01,23.56h925.75c13.14,0,24.02-10.87,24.02-23.56v-67.97c0-13.14-10.87-23.56-24.02-23.56h0Z" />
    </g>
</svg>