<?xml version="1.0" encoding="UTF-8"?><svg id="Calque_2" xmlns="http://www.w3.org/2000/svg" viewBox="0 0 1006.82 1428.29"><defs><style>.cls-1{fill:#c88c4b;}.cls-1,.cls-2,.cls-3,.cls-4,.cls-5,.cls-6,.cls-7,.cls-8,.cls-9,.cls-10{stroke-width:0px;}.cls-1,.cls-2,.cls-3,.cls-4,.cls-6,.cls-7,.cls-10{fill-rule:evenodd;}.cls-2{fill:#567249;}.cls-3{fill:#965e38;}.cls-4{fill:#744627;}.cls-5,.cls-6{fill:#886440;}.cls-7{fill:#fdc58c;}.cls-8{fill:#523019;}.cls-9{fill:#c9bbab;}.cls-10{fill:#89a03c;}</style></defs><g id="Layer_1"><path class="cls-4" d="M144.99,75.68v6.34s47.13-8.16,47.13,41.68l4.53,1.37.9-55.29-52.56,5.89Z"/><path class="cls-9" d="M792.07,262.68c110.57,118.27,104.68,198.02,63.44,236.54-19.03,17.67-45.31,26.73-71.59,26.73-26.29,0-53.01-9.06-72.05-26.73-41.24-38.51-47.12-118.27,63.44-236.54,4.53-4.98,12.23-4.98,16.76,0h0ZM783.92,287.15c-91.08,101.05-88.82,165.39-56.64,195.75,14.5,13.6,35.35,20.39,56.64,20.39,20.84,0,41.68-6.79,56.19-20.39,32.17-30.36,34.44-94.7-56.19-195.75h0Z"/><path class="cls-3" d="M203,389.7L520.19,72.5c4.54-4.98,4.54-12.68,0-17.67l-25.82-25.82c-4.99-4.54-12.69-4.54-17.67,0L159.5,346.2c-4.53,4.99-4.53,12.68,0,17.67l25.84,25.83c4.98,4.53,12.68,4.53,17.67,0h0Z"/><path class="cls-4" d="M897.2,14.5H126.87c-6.79,0-12.69,5.43-12.69,12.68v35.8c0,7.24,5.9,12.68,12.69,12.68h770.33c7.25,0,12.68-5.44,12.68-12.68V27.19c0-7.25-5.43-12.68-12.68-12.68h0Z"/><path class="cls-3" d="M897.2,14.5H126.87c-6.79,0-12.69,5.43-12.69,12.68v22.66c0,7.25,5.9,12.68,12.69,12.68h770.33c7.25,0,12.68-5.43,12.68-12.68v-22.66c0-7.25-5.43-12.68-12.68-12.68h0Z"/><path class="cls-9" d="M840.55,11.33C840.55,4.98,835.12,0,829.23,0c-6.35,0-11.32,4.98-11.32,11.33v67.52c0,6.35,4.98,11.33,11.32,11.33,5.89,0,11.32-4.98,11.32-11.33V11.33Z"/><path class="cls-9" d="M817.91,11.33C817.91,4.98,812.46,0,806.57,0c-6.34,0-11.32,4.98-11.32,11.33v67.52c0,6.35,4.99,11.33,11.32,11.33,5.89,0,11.34-4.98,11.34-11.33V11.33Z"/><path class="cls-9" d="M795.25,6.97c0-3.9-5.44-6.97-11.33-6.97-6.35,0-11.33,3.06-11.33,6.97v239.11c0,3.9,4.99,6.97,11.33,6.97,5.89,0,11.33-3.06,11.33-6.97V6.97Z"/><path class="cls-9" d="M772.59,11.33C772.59,4.98,767.15,0,761.26,0c-6.35,0-11.33,4.98-11.33,11.33v67.52c0,6.35,4.98,11.33,11.33,11.33,5.89,0,11.33-4.98,11.33-11.33V11.33Z"/><path class="cls-9" d="M749.93,11.33c0-6.34-5.44-11.33-11.33-11.33-6.34,0-11.33,4.98-11.33,11.33v67.52c0,6.35,4.99,11.33,11.33,11.33,5.89,0,11.33-4.98,11.33-11.33V11.33Z"/><path class="cls-9" d="M749.93,266.76c-6.35,0-11.33-4.99-11.33-11.33,0-6.34,4.99-11.33,11.33-11.33h67.52c6.34,0,11.33,4.99,11.33,11.33,0,6.34-4.99,11.33-11.33,11.33h-67.52Z"/><path class="cls-9" d="M749.93,244.1c-6.35,0-11.33-4.99-11.33-11.33s4.99-11.33,11.33-11.33h67.52c6.34,0,11.33,4.99,11.33,11.33,0,6.34-4.99,11.33-11.33,11.33h-67.52Z"/><path class="cls-4" d="M514.3,68.42l2.26,7.25s-48.04-5.44-88.36,28.09c-40.34,33.08-198.48,193.49-198.48,193.49,0,0-23.56,33.08-23.56,88.82l-7.71-12.24,7.71-74.32,223.84-223.85,84.29-7.25Z"/><path class="cls-3" d="M206.17,1358.5h619.43s63.44,0,63.44,0h60.72c13.14,0,24.02-10.42,24.02-23.56v18.12c0,12.68-10.87,23.56-24.02,23.56h-60.72s-63.44,0-63.44,0H193.48s-35.8,0-35.8,0h-9.52s-63.43,0-63.43,0H24.01c-13.15,0-24.01-10.87-24.01-23.56v-18.12c0,13.14,10.86,23.56,24.01,23.56h60.73s60.26,0,60.26,0h3.17s43.96,0,43.96,0h14.05Z"/><path class="cls-2" d="M728.6,990.44c-5.44,0-10.33-3.41-12.19-8.56l-42.63-117.81h-48.17c-3.83,0-7.44-1.69-9.92-4.61-2.46-2.91-3.51-6.78-2.86-10.55l35.91-208.67h-80.89c-3.46,0-6.78-1.39-9.22-3.86-2.44-2.46-3.78-5.81-3.74-9.27l1.19-99.28c.09-7.1,5.87-12.81,12.97-12.81h119.33c3.72,0,7.26,1.6,9.71,4.38,20.96,23.75,51.14,37.36,82.77,37.36s61.81-13.62,82.77-37.36c2.46-2.78,6.01-4.38,9.73-4.38h120.51c7.16,0,12.96,5.81,12.96,12.97v101.09c0,7.16-5.8,12.97-12.96,12.97h-74.33l34.77,206.92c.63,3.76-.43,7.61-2.89,10.52-2.47,2.91-6.09,4.59-9.9,4.59h-35.22s1.35,39.54,1.35,39.54c.17,4.97-2.51,9.59-6.9,11.91-4.39,2.32-9.71,1.94-13.72-1.01l-68.78-50.43h-43.74l-33.42,116.96c-1.54,5.4-6.4,9.2-12.02,9.39-.15.02-.31.02-.46.02Z"/><path class="cls-7" d="M782.89,564.32c-75.15,0-136.3-61.15-136.3-136.3,0-20.75,4.55-40.67,13.52-59.22,2.17-4.49,6.7-7.32,11.68-7.32h222.22c4.98,0,9.51,2.85,11.68,7.32,8.97,18.55,13.52,38.48,13.52,59.22,0,75.15-61.16,136.3-136.32,136.3Z"/><path class="cls-2" d="M900.12,347.65s-.09,0-.15,0h-234.14c-4.21,0-8.16-2.05-10.59-5.48-2.43-3.43-3.04-7.84-1.64-11.8l36.73-104.05c1.83-5.19,6.73-8.65,12.23-8.65h160.68c5.5,0,10.4,3.46,12.23,8.65l36.1,102.26c.97,1.82,1.53,3.89,1.53,6.11,0,7.14-5.81,12.96-12.97,12.96Z"/><path class="cls-10" d="M933.33,387.4h-300.86c-7.16,0-12.97-5.8-12.97-12.96v-39.76c0-7.16,5.81-12.97,12.97-12.97h300.86c7.15,0,12.96,5.81,12.96,12.97v39.76c0,7.15-5.82,12.96-12.96,12.96Z"/><path class="cls-1" d="M720.17,479.62s17.57,4.72,30.04-3.21c12.47-7.94,27.21-11.9,32.68.76,5.48-12.66,20.22-8.69,32.68-.76,12.47,7.93,30.04,3.21,30.04,3.21-14.55,36.08-62.73,16.62-62.73,16.62,0,0-48.18,19.46-62.73-16.62Z"/><rect class="cls-5" x="720" y="427.59" width="17.46" height="31.75" rx="8.73" ry="8.73"/><path class="cls-6" d="M837.06,427.59h0c4.8,0,8.73,3.92,8.73,8.72v14.31c0,4.8-3.93,8.73-8.73,8.73h0c-4.8,0-8.73-3.93-8.73-8.73v-14.31c0-4.8,3.93-8.72,8.73-8.72Z"/><path class="cls-4" d="M206.17,1345.56V80.24c0-6.79-5.45-12.23-12.69-12.23h-35.8c-7.26,0-12.69,5.44-12.69,12.23v1265.32c0,6.8,5.43,12.68,12.69,12.68h35.8c7.24,0,12.69-5.88,12.69-12.68h0Z"/><rect class="cls-8" x="825.6" y="1341.74" width="63.44" height="86.56"/><rect class="cls-8" x="84.73" y="1341.74" width="63.43" height="86.56"/><path class="cls-3" d="M949.76,1261.53H24.01C10.86,1261.53,0,1271.96,0,1285.1v67.97c0,12.68,10.86,23.56,24.01,23.56h925.75c13.14,0,24.02-10.87,24.02-23.56v-67.97c0-13.14-10.87-23.56-24.02-23.56h0Z"/></g></svg>